{
	"asset":{
		"generator":"Khronos glTF Blender I/O v4.0.44",
		"version":"2.0"
	},
	"scene":0,
	"scenes":[
		{
			"name":"Scene",
			"nodes":[
				0,
				1,
				2,
				3,
				4,
				5,
				6,
				7
			]
		}
	],
	"nodes":[
		{
			"mesh":0,
			"name":"Console"
		},
		{
			"mesh":1,
			"name":"D-Pad",
			"translation":[
				-1.315000057220459,
				0.07000000029802322,
				0.34000056982040405
			]
		},
		{
			"mesh":2,
			"name":"Button_A",
			"translation":[
				1.225000262260437,
				0.07000000029802322,
				-0.26250001788139343
			]
		},
		{
			"mesh":3,
			"name":"Button_B",
			"translation":[
				1.4250001907348633,
				0.07000000029802322,
				-0.4624998867511749
			]
		},
		{
			"mesh":4,
			"name":"Button_Home",
			"translation":[
				1.1299999952316284,
				0.03999999910593033,
				0.6575000882148743
			]
		},
		{
			"mesh":5,
			"name":"Button_Start",
			"translation":[
				1.1299999952316284,
				0.03999999910593033,
				0.5575000643730164
			]
		},
		{
			"mesh":6,
			"name":"Joystick",
			"translation":[
				-1.3250007629394531,
				0.00024071941152215004,
				-0.36250025033950806
			]
		},
		{
			"mesh":7,
			"name":"Console_Screen",
			"translation":[
				0,
				0.07499999552965164,
				-0.012500017881393433
			]
		}
	],
	"materials":[
		{
			"doubleSided":true,
			"name":"M_Console",
			"pbrMetallicRoughness":{
				"baseColorTexture":{
					"index":0
				},
				"metallicFactor":0,
				"roughnessFactor":0.5
			}
		},
		{
			"doubleSided":true,
			"emissiveFactor":[
				1,
				0.08449383080005646,
				0.14719250798225403
			],
			"name":"M_Console_Screen",
			"pbrMetallicRoughness":{
				"baseColorFactor":[
					0.9743306040763855,
					0.9743306040763855,
					0.9743306040763855,
					1
				],
				"metallicFactor":0,
				"roughnessFactor":0.5
			}
		}
	],
	"meshes":[
		{
			"name":"Plane.002",
			"primitives":[
				{
					"attributes":{
						"POSITION":0,
						"NORMAL":1,
						"TEXCOORD_0":2
					},
					"indices":3,
					"material":0
				},
				{
					"attributes":{
						"POSITION":4,
						"NORMAL":5,
						"TEXCOORD_0":6
					},
					"indices":7,
					"material":0
				}
			]
		},
		{
			"name":"Cube.004",
			"primitives":[
				{
					"attributes":{
						"POSITION":8,
						"NORMAL":9,
						"TEXCOORD_0":10
					},
					"indices":11,
					"material":0
				}
			]
		},
		{
			"name":"Cylinder.003",
			"primitives":[
				{
					"attributes":{
						"POSITION":12,
						"NORMAL":13,
						"TEXCOORD_0":14
					},
					"indices":15,
					"material":0
				}
			]
		},
		{
			"name":"Cylinder.002",
			"primitives":[
				{
					"attributes":{
						"POSITION":16,
						"NORMAL":17,
						"TEXCOORD_0":18
					},
					"indices":15,
					"material":0
				}
			]
		},
		{
			"name":"Cube.005",
			"primitives":[
				{
					"attributes":{
						"POSITION":19,
						"NORMAL":20,
						"TEXCOORD_0":21
					},
					"indices":22,
					"material":0
				}
			]
		},
		{
			"name":"Cube.006",
			"primitives":[
				{
					"attributes":{
						"POSITION":23,
						"NORMAL":24,
						"TEXCOORD_0":25
					},
					"indices":26,
					"material":0
				}
			]
		},
		{
			"name":"Cylinder.005",
			"primitives":[
				{
					"attributes":{
						"POSITION":27,
						"NORMAL":28,
						"TEXCOORD_0":29
					},
					"indices":30,
					"material":0
				}
			]
		},
		{
			"name":"Plane.003",
			"primitives":[
				{
					"attributes":{
						"POSITION":31,
						"NORMAL":32,
						"TEXCOORD_0":33
					},
					"indices":34,
					"material":1
				}
			]
		}
	],
	"textures":[
		{
			"sampler":0,
			"source":0
		}
	],
	"images":[
		{
			"mimeType":"image/png",
			"name":"T_Console",
			"uri":"T_Console.png"
		}
	],
	"accessors":[
		{
			"bufferView":0,
			"componentType":5126,
			"count":361,
			"max":[
				1.625,
				0.10000000149011612,
				0.9874999523162842
			],
			"min":[
				-1.625,
				0,
				-0.862500011920929
			],
			"type":"VEC3"
		},
		{
			"bufferView":1,
			"componentType":5126,
			"count":361,
			"type":"VEC3"
		},
		{
			"bufferView":2,
			"componentType":5126,
			"count":361,
			"type":"VEC2"
		},
		{
			"bufferView":3,
			"componentType":5123,
			"count":1533,
			"type":"SCALAR"
		},
		{
			"bufferView":4,
			"componentType":5126,
			"count":194,
			"max":[
				-1.125,
				0.09999999403953552,
				-0.16250011324882507
			],
			"min":[
				-1.5249998569488525,
				0.06840655952692032,
				-0.5625001192092896
			],
			"type":"VEC3"
		},
		{
			"bufferView":5,
			"componentType":5126,
			"count":194,
			"type":"VEC3"
		},
		{
			"bufferView":6,
			"componentType":5126,
			"count":194,
			"type":"VEC2"
		},
		{
			"bufferView":7,
			"componentType":5123,
			"count":1059,
			"type":"SCALAR"
		},
		{
			"bufferView":8,
			"componentType":5126,
			"count":350,
			"max":[
				0.20999997854232788,
				0.12000000476837158,
				0.2099994421005249
			],
			"min":[
				-0.20999997854232788,
				0,
				-0.21000048518180847
			],
			"type":"VEC3"
		},
		{
			"bufferView":9,
			"componentType":5126,
			"count":350,
			"type":"VEC3"
		},
		{
			"bufferView":10,
			"componentType":5126,
			"count":350,
			"type":"VEC2"
		},
		{
			"bufferView":11,
			"componentType":5123,
			"count":1542,
			"type":"SCALAR"
		},
		{
			"bufferView":12,
			"componentType":5126,
			"count":227,
			"max":[
				0.09999978542327881,
				0.07500000298023224,
				0.09999993443489075
			],
			"min":[
				-0.10000026226043701,
				0,
				-0.1000000536441803
			],
			"type":"VEC3"
		},
		{
			"bufferView":13,
			"componentType":5126,
			"count":227,
			"type":"VEC3"
		},
		{
			"bufferView":14,
			"componentType":5126,
			"count":227,
			"type":"VEC2"
		},
		{
			"bufferView":15,
			"componentType":5123,
			"count":1056,
			"type":"SCALAR"
		},
		{
			"bufferView":16,
			"componentType":5126,
			"count":227,
			"max":[
				0.09999990463256836,
				0.07500000298023224,
				0.09999990463256836
			],
			"min":[
				-0.10000014305114746,
				0,
				-0.10000014305114746
			],
			"type":"VEC3"
		},
		{
			"bufferView":17,
			"componentType":5126,
			"count":227,
			"type":"VEC3"
		},
		{
			"bufferView":18,
			"componentType":5126,
			"count":227,
			"type":"VEC2"
		},
		{
			"bufferView":19,
			"componentType":5126,
			"count":102,
			"max":[
				0.08000004291534424,
				0.09233630448579788,
				0.029999911785125732
			],
			"min":[
				-0.08000004291534424,
				0,
				-0.030000030994415283
			],
			"type":"VEC3"
		},
		{
			"bufferView":20,
			"componentType":5126,
			"count":102,
			"type":"VEC3"
		},
		{
			"bufferView":21,
			"componentType":5126,
			"count":102,
			"type":"VEC2"
		},
		{
			"bufferView":22,
			"componentType":5123,
			"count":456,
			"type":"SCALAR"
		},
		{
			"bufferView":23,
			"componentType":5126,
			"count":102,
			"max":[
				0.08000004291534424,
				0.09233630448579788,
				0.029999911785125732
			],
			"min":[
				-0.08000004291534424,
				0,
				-0.030000030994415283
			],
			"type":"VEC3"
		},
		{
			"bufferView":24,
			"componentType":5126,
			"count":102,
			"type":"VEC3"
		},
		{
			"bufferView":25,
			"componentType":5126,
			"count":102,
			"type":"VEC2"
		},
		{
			"bufferView":26,
			"componentType":5123,
			"count":456,
			"type":"SCALAR"
		},
		{
			"bufferView":27,
			"componentType":5126,
			"count":227,
			"max":[
				0.12000060081481934,
				0.13520735502243042,
				0.12000007927417755
			],
			"min":[
				-0.11999925971031189,
				0.0681658387184143,
				-0.11999993026256561
			],
			"type":"VEC3"
		},
		{
			"bufferView":28,
			"componentType":5126,
			"count":227,
			"type":"VEC3"
		},
		{
			"bufferView":29,
			"componentType":5126,
			"count":227,
			"type":"VEC2"
		},
		{
			"bufferView":30,
			"componentType":5123,
			"count":1152,
			"type":"SCALAR"
		},
		{
			"bufferView":31,
			"componentType":5126,
			"count":4,
			"max":[
				0.9999999403953552,
				0,
				0.75
			],
			"min":[
				-0.9999999403953552,
				0,
				-0.75
			],
			"type":"VEC3"
		},
		{
			"bufferView":32,
			"componentType":5126,
			"count":4,
			"type":"VEC3"
		},
		{
			"bufferView":33,
			"componentType":5126,
			"count":4,
			"type":"VEC2"
		},
		{
			"bufferView":34,
			"componentType":5123,
			"count":6,
			"type":"SCALAR"
		}
	],
	"bufferViews":[
		{
			"buffer":0,
			"byteLength":4332,
			"byteOffset":0,
			"target":34962
		},
		{
			"buffer":0,
			"byteLength":4332,
			"byteOffset":4332,
			"target":34962
		},
		{
			"buffer":0,
			"byteLength":2888,
			"byteOffset":8664,
			"target":34962
		},
		{
			"buffer":0,
			"byteLength":3066,
			"byteOffset":11552,
			"target":34963
		},
		{
			"buffer":0,
			"byteLength":2328,
			"byteOffset":14620,
			"target":34962
		},
		{
			"buffer":0,
			"byteLength":2328,
			"byteOffset":16948,
			"target":34962
		},
		{
			"buffer":0,
			"byteLength":1552,
			"byteOffset":19276,
			"target":34962
		},
		{
			"buffer":0,
			"byteLength":2118,
			"byteOffset":20828,
			"target":34963
		},
		{
			"buffer":0,
			"byteLength":4200,
			"byteOffset":22948,
			"target":34962
		},
		{
			"buffer":0,
			"byteLength":4200,
			"byteOffset":27148,
			"target":34962
		},
		{
			"buffer":0,
			"byteLength":2800,
			"byteOffset":31348,
			"target":34962
		},
		{
			"buffer":0,
			"byteLength":3084,
			"byteOffset":34148,
			"target":34963
		},
		{
			"buffer":0,
			"byteLength":2724,
			"byteOffset":37232,
			"target":34962
		},
		{
			"buffer":0,
			"byteLength":2724,
			"byteOffset":39956,
			"target":34962
		},
		{
			"buffer":0,
			"byteLength":1816,
			"byteOffset":42680,
			"target":34962
		},
		{
			"buffer":0,
			"byteLength":2112,
			"byteOffset":44496,
			"target":34963
		},
		{
			"buffer":0,
			"byteLength":2724,
			"byteOffset":46608,
			"target":34962
		},
		{
			"buffer":0,
			"byteLength":2724,
			"byteOffset":49332,
			"target":34962
		},
		{
			"buffer":0,
			"byteLength":1816,
			"byteOffset":52056,
			"target":34962
		},
		{
			"buffer":0,
			"byteLength":1224,
			"byteOffset":53872,
			"target":34962
		},
		{
			"buffer":0,
			"byteLength":1224,
			"byteOffset":55096,
			"target":34962
		},
		{
			"buffer":0,
			"byteLength":816,
			"byteOffset":56320,
			"target":34962
		},
		{
			"buffer":0,
			"byteLength":912,
			"byteOffset":57136,
			"target":34963
		},
		{
			"buffer":0,
			"byteLength":1224,
			"byteOffset":58048,
			"target":34962
		},
		{
			"buffer":0,
			"byteLength":1224,
			"byteOffset":59272,
			"target":34962
		},
		{
			"buffer":0,
			"byteLength":816,
			"byteOffset":60496,
			"target":34962
		},
		{
			"buffer":0,
			"byteLength":912,
			"byteOffset":61312,
			"target":34963
		},
		{
			"buffer":0,
			"byteLength":2724,
			"byteOffset":62224,
			"target":34962
		},
		{
			"buffer":0,
			"byteLength":2724,
			"byteOffset":64948,
			"target":34962
		},
		{
			"buffer":0,
			"byteLength":1816,
			"byteOffset":67672,
			"target":34962
		},
		{
			"buffer":0,
			"byteLength":2304,
			"byteOffset":69488,
			"target":34963
		},
		{
			"buffer":0,
			"byteLength":48,
			"byteOffset":71792,
			"target":34962
		},
		{
			"buffer":0,
			"byteLength":48,
			"byteOffset":71840,
			"target":34962
		},
		{
			"buffer":0,
			"byteLength":32,
			"byteOffset":71888,
			"target":34962
		},
		{
			"buffer":0,
			"byteLength":12,
			"byteOffset":71920,
			"target":34963
		}
	],
	"samplers":[
		{
			"magFilter":9729,
			"minFilter":9987
		}
	],
	"buffers":[
		{
			"byteLength":71932,
			"uri":"Console.bin"
		}
	]
}
