<?xml version="1.0" encoding="UTF-8" standalone="no"?>
<!-- Created with Inkscape (http://www.inkscape.org/) -->

<svg
   width="512"
   height="512"
   viewBox="0 0 512 512"
   version="1.1"
   id="svg1"
   inkscape:version="1.3 (0e150ed6c4, 2023-07-21)"
   sodipodi:docname="console_ui_background.svg"
   inkscape:export-filename="console_ui_background.svg"
   inkscape:export-xdpi="96"
   inkscape:export-ydpi="96"
   xmlns:inkscape="http://www.inkscape.org/namespaces/inkscape"
   xmlns:sodipodi="http://sodipodi.sourceforge.net/DTD/sodipodi-0.dtd"
   xmlns="http://www.w3.org/2000/svg"
   xmlns:svg="http://www.w3.org/2000/svg">
  <sodipodi:namedview
     id="namedview1"
     pagecolor="#ffffff"
     bordercolor="#000000"
     borderopacity="0.25"
     inkscape:showpageshadow="2"
     inkscape:pageopacity="0.0"
     inkscape:pagecheckerboard="0"
     inkscape:deskcolor="#d1d1d1"
     inkscape:document-units="mm"
     inkscape:zoom="1.1336964"
     inkscape:cx="165.38819"
     inkscape:cy="235.07175"
     inkscape:window-width="1920"
     inkscape:window-height="1009"
     inkscape:window-x="1912"
     inkscape:window-y="-8"
     inkscape:window-maximized="1"
     inkscape:current-layer="g79"
     showguides="true"
     showgrid="true">
    <inkscape:grid
       id="grid3"
       units="px"
       originx="0"
       originy="0"
       spacingx="4"
       spacingy="4"
       empcolor="#0099e5"
       empopacity="0.30196078"
       color="#0099e5"
       opacity="0.14901961"
       empspacing="4"
       dotted="false"
       gridanglex="30"
       gridanglez="30"
       visible="true" />
  </sodipodi:namedview>
  <defs
     id="defs1" />
  <g
     inkscape:label="Layer 1"
     inkscape:groupmode="layer"
     id="layer1"
     transform="translate(-1.339542e-5)">
    <rect
       style="fill:#0b1728;fill-opacity:1;stroke:none;stroke-width:8.2682;stroke-linecap:round;stroke-linejoin:round"
       id="rect2"
       width="127.23454"
       height="127.23455"
       x="-1279.6173"
       y="-767.61725"
       inkscape:export-filename="console_ui_background.svg"
       inkscape:export-xdpi="96"
       inkscape:export-ydpi="96" />
    <rect
       style="display:none;fill:#f2f2f2;stroke:none;stroke-width:10;stroke-linecap:round;stroke-linejoin:round"
       id="rect1"
       width="89.968414"
       height="89.968414"
       x="44.984207"
       y="-44.984207"
       transform="rotate(45)" />
    <g
       id="g3"
       transform="matrix(0.00900982,0,0,0.00900982,-1267.6541,-760.77573)"
       style="fill:#f2f2f2">
      <path
         class="cls-1"
         d="m 464.56,291.17 c 13.55,11.08 19.01,77.6 46.45,26.08 16.55,-31.07 7.82,-35.41 51.15,-27.49 84.35,15.42 180.66,90.38 220.81,165.33 3.41,6.37 13.14,22.06 11.35,28.25 -0.7,2.42 -30.72,31.37 -35.42,35.95 -106.38,103.53 -253.68,202.06 -384.6,272.24 -26.29,14.1 -64.27,35.76 -90.97,46.08 -2.63,1.02 -18.04,6.26 -20.04,5.81 C 260.98,842.9 235.11,814 231.79,809.61 122.5,665.2 157.99,446.17 304.31,341.74 c 33.59,-23.97 94.78,-53.42 136.03,-55.75 11.18,-0.63 15.68,-1.82 24.24,5.18 z"
         id="path1"
         style="fill:#f2f2f2" />
      <path
         class="cls-1"
         d="m 959.98,246.15 c 89.91,28.11 37.45,132.74 2.2,184.5 -38.24,56.16 -89,104.92 -138.05,151.67 17.94,253.58 -247.49,445.05 -479.36,324.5 -76.61,30.85 -222.71,98.14 -302.57,66.7 -107.62,-42.36 19.64,-201.67 61.26,-250.03 6.73,-7.82 37.71,-44.71 45.46,-44.83 4.33,-0.06 15.9,35.76 15.57,39.78 -0.33,4.02 -44.02,56.38 -50.25,65.59 -124.4,183.95 121.14,101.35 202.43,65.05 C 490.9,771.29 766.07,585.17 871.04,425.29 984.8,252.03 804.67,296.71 709.88,344.55 703,341.57 670.36,312.6 673.48,307.29 c 2.73,-4.66 69.23,-31.48 79.09,-35.01 58.59,-20.93 146.74,-45.1 207.41,-26.13 z"
         id="path2"
         style="fill:#f2f2f2" />
      <path
         class="cls-1"
         d="m 498.09,0.83 c 3.11,1.62 5.83,10.89 6.97,14.29 14.48,43.3 7.3,100 60.07,119.86 18.64,7.01 56.63,10.49 71.1,18.5 5.6,3.1 8,8.89 3.41,13.93 -6.35,6.97 -61.03,15.57 -74.51,20.84 -42.84,16.76 -43.74,60.76 -56.39,97.96 -5.05,14.84 -11.18,44.91 -22.76,16.14 -19.85,-49.33 -9.5,-97.33 -71.12,-116.4 -11.28,-3.49 -67.2,-13.55 -71.36,-19.62 -3.08,-4.5 -0.23,-10.85 4.4,-13.13 28.89,-14.22 74.79,-7.42 101.81,-35.78 28.04,-29.44 21.54,-79.1 36.27,-111.49 1.88,-4.13 7.35,-7.57 12.11,-5.1 z"
         id="path3"
         style="fill:#f2f2f2" />
    </g>
    <path
       class="cls-1"
       d="m -1184.865,-660.47593 c 0.1238,0.0645 0.2321,0.43352 0.2774,0.56887 0.5765,1.72373 0.2906,3.98089 2.3914,4.7715 0.742,0.27906 2.2543,0.41759 2.8304,0.73646 0.2229,0.12341 0.3184,0.3539 0.1357,0.55454 -0.2528,0.27747 -2.4295,0.61983 -2.9661,0.82962 -1.7055,0.6672 -1.7413,2.41879 -2.2449,3.89968 -0.201,0.59077 -0.445,1.78782 -0.906,0.64252 -0.7902,-1.96378 -0.3782,-3.87461 -2.8312,-4.63376 -0.4491,-0.13894 -2.6752,-0.53941 -2.8408,-0.78105 -0.1226,-0.17914 -0.01,-0.43193 0.1752,-0.52269 1.1501,-0.56609 2.9773,-0.29539 4.0529,-1.42437 1.1163,-1.17197 0.8575,-3.14888 1.4439,-4.43829 0.075,-0.16441 0.2926,-0.30136 0.4821,-0.20303 z"
       id="path5"
       style="fill:#f2f2f2;stroke-width:0.0398089" />
    <path
       class="cls-1"
       d="m -1258.947,-710.51512 c 0.095,0.0495 0.1781,0.3327 0.2129,0.43657 0.4424,1.32284 0.2231,3.05506 1.8352,3.66179 0.5695,0.21416 1.7301,0.32048 2.1722,0.56519 0.1711,0.0947 0.2444,0.27159 0.1041,0.42557 -0.1939,0.21294 -1.8645,0.47567 -2.2763,0.63667 -1.3088,0.51203 -1.3363,1.85626 -1.7227,2.99274 -0.1543,0.45337 -0.3416,1.37203 -0.6954,0.49309 -0.6064,-1.50707 -0.2902,-2.97349 -2.1727,-3.55609 -0.3446,-0.10663 -2.053,-0.41396 -2.1801,-0.59941 -0.094,-0.13747 -0.01,-0.33147 0.1344,-0.40113 0.8826,-0.43443 2.2849,-0.22668 3.1104,-1.0931 0.8566,-0.89941 0.658,-2.41655 1.108,-3.40608 0.057,-0.12618 0.2246,-0.23127 0.37,-0.15581 z"
       id="path6"
       style="fill:#f2f2f2;stroke-width:0.0305506" />
    <path
       class="cls-1"
       d="m -1229.3694,-755.92583 c 0.066,0.0342 0.123,0.22967 0.147,0.30138 0.3054,0.9132 0.154,2.10902 1.2669,2.52787 0.3931,0.14784 1.1943,0.22123 1.4995,0.39017 0.1181,0.0654 0.1687,0.18749 0.072,0.29378 -0.1339,0.147 -1.2871,0.32837 -1.5714,0.43952 -0.9035,0.35347 -0.9225,1.28144 -1.1893,2.06599 -0.1065,0.31298 -0.2358,0.94716 -0.48,0.3404 -0.4186,-1.04038 -0.2003,-2.05271 -1.4999,-2.4549 -0.2379,-0.0736 -1.4173,-0.28577 -1.505,-0.41379 -0.065,-0.0949 -0.01,-0.22882 0.093,-0.27691 0.6093,-0.2999 1.5773,-0.15649 2.1472,-0.75461 0.5913,-0.62089 0.4542,-1.66823 0.7649,-2.35134 0.04,-0.0871 0.155,-0.15965 0.2554,-0.10756 z"
       id="path8"
       style="fill:#f2f2f2;stroke-width:0.0210902" />
    <path
       id="path9"
       style="fill:#f2f2f2;fill-opacity:1;stroke:none;stroke-width:3.6071;stroke-linecap:round;stroke-linejoin:round"
       d="m -1198.2725,-703.37985 c -0.3044,-0.003 -0.2994,0.0635 0.01,0.35342 2.0856,2.24841 3.2528,5.20729 3.2542,8.28857 -0,3.08127 -1.1686,6.04015 -3.2542,8.28857 -0.3072,0.28989 -0.3122,0.3563 -0.01,0.35341 4.7959,-3e-5 8.4332,-3.80436 8.4332,-8.60023 0,-0.014 -10e-4,-0.0278 -10e-4,-0.0418 10e-5,-0.014 10e-4,-0.0277 10e-4,-0.0418 0,-4.79587 -3.6373,-8.60019 -8.4332,-8.60024 z" />
    <circle
       style="fill:#ffffff;fill-opacity:1;stroke:none;stroke-width:2.57143;stroke-linecap:round;stroke-linejoin:round"
       id="circle10"
       cx="-1171.4553"
       cy="-750.54034"
       r="1.683798" />
    <circle
       style="fill:#ffffff;fill-opacity:1;stroke:none;stroke-width:2.57143;stroke-linecap:round;stroke-linejoin:round"
       id="circle11"
       cx="-1213.7886"
       cy="-723.42059"
       r="1.683798" />
    <circle
       style="fill:#ffffff;fill-opacity:1;stroke:none;stroke-width:2.57143;stroke-linecap:round;stroke-linejoin:round"
       id="path10"
       cx="-1250.4335"
       cy="-669.84241"
       r="1.683798" />
    <rect
       style="fill:#a05a2c;fill-opacity:1;stroke:none;stroke-width:33.2717;stroke-linecap:round;stroke-linejoin:round"
       id="rect3"
       width="512"
       height="512"
       x="1.339542e-05"
       y="9.5516443e-06"
       inkscape:export-filename="console_ui_background.svg"
       inkscape:export-xdpi="96"
       inkscape:export-ydpi="96"
       inkscape:tile-cx="256"
       inkscape:tile-cy="256.00001"
       inkscape:tile-w="512"
       inkscape:tile-h="512"
       inkscape:tile-x0="-4.4513569e-14"
       inkscape:tile-y0="9.5516443e-06" />
    <path
       style="fill:none;stroke:none;stroke-width:37.7953;stroke-linecap:round;stroke-linejoin:round"
       d="M 1.339542e-5,96 48.000013,0 h 16 L 1.339542e-5,128 Z"
       id="path27" />
    <g
       id="g79"
       style="fill:#cccccc">
      <path
         style="fill:#cccccc;stroke:none;stroke-width:37.7953;stroke-linecap:round;stroke-linejoin:round"
         d="M 1.339542e-5,32 32.000013,0 h 64 L 1.339542e-5,96 Z"
         id="path64" />
      <path
         style="fill:#cccccc;stroke:none;stroke-width:37.7953;stroke-linecap:round;stroke-linejoin:round"
         d="M 1.339542e-5,160 160.00001,0 h 64 L 1.339542e-5,224 Z"
         id="path65" />
      <path
         style="fill:#cccccc;stroke:none;stroke-width:37.7953;stroke-linecap:round;stroke-linejoin:round"
         d="M 1.339542e-5,288 288.00001,0 h 64 L 1.339542e-5,352 Z"
         id="path66" />
      <path
         style="fill:#cccccc;stroke:none;stroke-width:37.7953;stroke-linecap:round;stroke-linejoin:round"
         d="M 1.339542e-5,416 416.00001,0 h 64 L 1.339542e-5,480 Z"
         id="path67" />
      <path
         style="fill:#cccccc;stroke:none;stroke-width:37.7953;stroke-linecap:round;stroke-linejoin:round"
         d="M 512.00001,32 32.000013,512 h 64 L 512.00001,96 Z"
         id="path68" />
      <path
         style="fill:#cccccc;stroke:none;stroke-width:37.7953;stroke-linecap:round;stroke-linejoin:round"
         d="m 160.00001,512 352,-352 v 64 l -288,288 z"
         id="path69" />
      <path
         style="fill:#cccccc;stroke:none;stroke-width:37.7953;stroke-linecap:round;stroke-linejoin:round"
         d="m 288.00001,512 224,-224 v 64 l -160,160 z"
         id="path70" />
      <path
         style="fill:#cccccc;stroke:none;stroke-width:37.7953;stroke-linecap:round;stroke-linejoin:round"
         d="m 416.00001,512 96,-96 v 64 l -32,32 z"
         id="path71" />
    </g>
    <rect
       style="fill:#a05a2c;stroke:none;stroke-width:37.7953;stroke-linecap:round;stroke-linejoin:round;fill-opacity:1"
       id="rect79"
       width="150.07307"
       height="113.47053"
       x="-27.036524"
       y="-433.47052" />
  </g>
</svg>
