<?xml version="1.0" encoding="UTF-8" standalone="no"?>
<!-- Created with Inkscape (http://www.inkscape.org/) -->

<svg
   width="189.01701mm"
   height="54.857437mm"
   viewBox="0 0 189.01701 54.857437"
   version="1.1"
   id="svg1"
   sodipodi:docname="Startup_Logo.svg"
   inkscape:version="1.3 (0e150ed6c4, 2023-07-21)"
   xmlns:inkscape="http://www.inkscape.org/namespaces/inkscape"
   xmlns:sodipodi="http://sodipodi.sourceforge.net/DTD/sodipodi-0.dtd"
   xmlns="http://www.w3.org/2000/svg"
   xmlns:svg="http://www.w3.org/2000/svg">
  <sodipodi:namedview
     id="namedview1"
     pagecolor="#ffffff"
     bordercolor="#000000"
     borderopacity="0.25"
     inkscape:showpageshadow="2"
     inkscape:pageopacity="0.0"
     inkscape:pagecheckerboard="0"
     inkscape:deskcolor="#d1d1d1"
     inkscape:document-units="mm"
     inkscape:zoom="1.4305811"
     inkscape:cx="357.54701"
     inkscape:cy="103.80397"
     inkscape:window-width="1920"
     inkscape:window-height="1009"
     inkscape:window-x="-8"
     inkscape:window-y="-4"
     inkscape:window-maximized="1"
     inkscape:current-layer="g3" />
  <defs
     id="defs1" />
  <g
     inkscape:label="Layer 1"
     inkscape:groupmode="layer"
     id="layer1"
     transform="translate(221.02213,-12.417559)">
    <g
       id="g1"
       transform="translate(-10.400778,-54.700389)">
      <g
         id="g2"
         transform="translate(-5.7782101,-18.105058)"
         inkscape:export-filename="Startup_Logo.svg"
         inkscape:export-xdpi="96"
         inkscape:export-ydpi="96">
        <g
           id="g3"
           transform="translate(-228.81712,-0.77042869)">
          <rect
             style="fill:none;stroke:#ffffff;stroke-width:5.982;stroke-linecap:square;stroke-dasharray:none;stroke-opacity:1"
             id="rect1"
             width="183.03502"
             height="48.875435"
             x="26.964979"
             y="88.984436"
             ry="24.437717" />
          <path
             style="font-size:36.4317px;font-family:'Berlin Sans FB Demi';-inkscape-font-specification:'Berlin Sans FB Demi, Normal';stroke-width:3.32591;stroke-linecap:square;fill:#ffffff;stroke:none"
             d="m 46.864309,115.29889 q 0,3.61115 -3.041904,6.19054 -2.668338,2.27698 -6.492955,2.89959 -0.142311,0.0178 -0.231256,0.0178 -0.409145,0 -1.814469,-2.49045 -1.405325,-2.50823 -1.405325,-3.05969 0,-0.19568 0.266834,-0.24904 2.579393,-0.58704 3.415472,-0.99618 1.850047,-0.92503 1.850047,-2.7395 0,-1.15628 -1.209646,-2.57939 -2.099092,-2.41929 -2.276981,-2.68613 -1.227436,-1.85004 -1.227436,-4.09145 0,-3.25537 3.006327,-5.40783 2.454871,-1.77889 6.030443,-2.312557 0.195678,-0.01779 0.302412,-0.01779 0.266833,0 0.426934,0.426934 0.462512,1.298591 2.152459,4.696272 0.05337,0.10674 0.05337,0.17789 0,0.30241 -0.3202,0.30241 -0.142311,0 -0.480301,-0.0534 -0.337989,-0.0534 -0.515878,-0.0534 -1.280802,0 -2.241404,0.58703 -1.15628,0.67598 -1.15628,1.88563 0,1.08512 1.280802,2.66834 2.259193,2.84622 2.365926,2.98853 1.263013,1.95678 1.263013,3.89578 z m 19.123086,-1.47648 q 0,1.79668 -1.15628,2.04572 -0.195678,0.0356 -3.682306,0.39136 -2.099092,0.23125 -6.261698,0.55145 0.249044,1.15628 1.512057,1.76111 1.031758,0.49809 2.348137,0.49809 1.583214,0 3.184217,-0.85387 0.675978,-0.42693 1.351957,-0.85387 0.373567,0.17789 1.245224,1.81447 0.889446,1.63658 0.889446,2.0813 0,0.12453 -0.266833,0.40915 -2.170248,2.33035 -6.742,2.33035 -4.233762,0 -6.830944,-2.47266 -2.668338,-2.50824 -2.668338,-6.70642 0,-4.09145 2.383715,-6.70643 2.454871,-2.70391 6.510744,-2.70391 3.415472,0 5.799187,2.49045 2.383715,2.49045 2.383715,5.92371 z m -6.226121,-1.08513 q 0,-1.10291 -0.782713,-1.93899 -0.782712,-0.83608 -1.867836,-0.83608 -1.120702,0 -1.850047,0.94281 -0.675979,0.87166 -0.675979,2.04573 0,0.4803 0.49809,0.4803 1.316379,0 4.09145,-0.40914 0.587035,-0.089 0.587035,-0.28463 z m 27.804077,2.18804 q 0,3.80683 -2.241404,6.31507 -2.312559,2.59718 -6.066021,2.59718 -1.369746,0 -2.935171,-0.67598 -1.565424,-0.67598 -1.423113,-0.67598 -0.231256,0 -0.231256,0.53367 0,0.90723 0.08894,2.7217 0.08894,1.83226 0.08894,2.73949 0,0.56925 -0.587034,0.56925 l -3.628939,0.0178 q -1.227435,0 -1.583214,-0.089 -0.533667,-0.12452 -0.533667,-0.65819 l 0.03558,-13.69746 q 0,-4.14482 -0.622613,-6.99105 -0.03558,-0.17789 -0.03558,-0.30241 0,-0.26683 0.213467,-0.35578 0.693767,-0.26683 2.650548,-0.56924 1.903414,-0.30241 2.757282,-0.30241 0.693768,0 0.782713,0.92502 0.106733,0.90724 0.249045,0.90724 -0.17789,0 1.512057,-0.96061 1.707736,-0.97839 3.095272,-0.97839 3.860195,0 6.172754,2.54382 2.241404,2.45487 2.241404,6.38622 z m -6.599688,-0.0356 q 0,-1.42311 -0.871657,-2.49045 -0.942813,-1.1207 -2.330349,-1.1207 -1.423113,0 -2.276981,1.1207 -0.747134,1.01397 -0.747134,2.49045 0,1.51206 0.782712,2.50824 0.836079,1.08512 2.312559,1.08512 3.13085,0 3.13085,-3.59336 z m 28.533427,0.0356 q 0,3.80683 -2.24141,6.31507 -2.31256,2.59718 -6.06602,2.59718 -1.369745,0 -2.93517,-0.67598 -1.565425,-0.67598 -1.423113,-0.67598 -0.231256,0 -0.231256,0.53367 0,0.90723 0.08894,2.7217 0.08895,1.83226 0.08895,2.73949 0,0.56925 -0.587034,0.56925 l -3.628939,0.0178 q -1.227436,0 -1.583214,-0.089 -0.533667,-0.12452 -0.533667,-0.65819 l 0.03558,-13.69746 q 0,-4.14482 -0.622612,-6.99105 -0.03558,-0.17789 -0.03558,-0.30241 0,-0.26683 0.213467,-0.35578 0.693767,-0.26683 2.650548,-0.56924 1.903414,-0.30241 2.757282,-0.30241 0.693768,0 0.782713,0.92502 0.106733,0.90724 0.249044,0.90724 -0.177889,0 1.512058,-0.96061 1.707736,-0.97839 3.095274,-0.97839 3.86019,0 6.17275,2.54382 2.24141,2.45487 2.24141,6.38622 z m -6.59969,-0.0356 q 0,-1.42311 -0.87166,-2.49045 -0.94281,-1.1207 -2.330348,-1.1207 -1.423113,0 -2.276981,1.1207 -0.747134,1.01397 -0.747134,2.49045 0,1.51206 0.782712,2.50824 0.836079,1.08512 2.312559,1.08512 3.130852,0 3.130852,-3.59336 z m 20.81303,3.3799 q 0,0.53366 -0.14231,1.61879 -0.12452,1.08512 -0.12452,1.601 0,0.49809 -0.10673,0.6404 -0.10674,0.14231 -0.58704,0.40915 -2.29477,1.26301 -5.08763,1.26301 -5.14099,0 -5.14099,-3.93135 0,-1.17407 0.0889,-3.52221 0.0889,-2.36592 0.0889,-3.53999 0,-0.78271 -0.90723,-0.78271 -0.0712,0 -0.23126,0 -0.1601,0.0178 -0.23125,0.0178 -0.67598,0 -0.67598,-0.48031 0,-0.28462 0.0356,-0.87165 0.0534,-0.58704 0.0534,-0.87166 0,-0.37357 -0.0534,-1.13849 -0.0356,-0.76492 -0.0356,-1.13849 0,-0.35578 1.13849,-0.39136 0.6404,-0.0178 0.69377,-0.35578 0.10673,-0.67597 0.0712,-2.13467 -0.0712,-2.29477 -0.0712,-2.18803 0,-2.06352 0.39135,-2.06352 0.4803,0 1.36975,0.21347 1.01397,0.23126 1.40533,0.26683 0.90723,0.12453 2.73949,0.33799 0.44472,0.0356 0.44472,0.30242 0,0.71155 -0.12452,2.15245 -0.10673,1.44091 -0.10673,2.17025 0,0.87166 0.51587,0.87166 0.62262,0 1.88563,-0.0534 1.26301,-0.0534 1.90341,-0.0534 0.39136,0 0.39136,0.26683 0,0.40914 -0.0889,1.22743 -0.0889,0.81829 -0.0889,1.22744 0,0.42693 0.0178,1.24522 0.0178,0.81829 0.0178,1.24523 0,0.37357 -0.51588,0.37357 -0.35578,0 -1.19186,-0.0178 -0.83608,-0.0356 -1.19186,-0.0356 h -1.33416 q -0.26684,0 -0.26684,0.78271 0,0.42693 0,1.26301 0.0178,0.85387 0.0178,1.26302 0,1.49427 0.33799,2.06351 0.4803,0.76492 1.88563,0.76492 0.44472,0 1.26301,-0.19567 0.83608,-0.21347 1.17407,-0.21347 0.37356,0 0.37356,0.39136 z m 18.16248,-4.44723 q 0,1.79668 -1.15628,2.04572 -0.19568,0.0356 -3.6823,0.39136 -2.0991,0.23125 -6.2617,0.55145 0.24904,1.15628 1.51206,1.76111 1.03175,0.49809 2.34813,0.49809 1.58322,0 3.18422,-0.85387 0.67598,-0.42693 1.35196,-0.85387 0.37356,0.17789 1.24522,1.81447 0.88945,1.63658 0.88945,2.0813 0,0.12453 -0.26684,0.40915 -2.17024,2.33035 -6.742,2.33035 -4.23376,0 -6.83094,-2.47266 -2.66834,-2.50824 -2.66834,-6.70642 0,-4.09145 2.38372,-6.70643 2.45487,-2.70391 6.51074,-2.70391 3.41547,0 5.79919,2.49045 2.38371,2.49045 2.38371,5.92371 z m -6.22612,-1.08513 q 0,-1.10291 -0.78271,-1.93899 -0.78271,-0.83608 -1.86784,-0.83608 -1.1207,0 -1.85004,0.94281 -0.67598,0.87166 -0.67598,2.04573 0,0.4803 0.49809,0.4803 1.31638,0 4.09145,-0.40914 0.58703,-0.089 0.58703,-0.28463 z m 25.86509,10.22863 q 0,0.4803 -0.49809,0.55146 -0.49809,0.0712 -2.59718,0.0712 -2.2414,0 -2.77507,-0.10673 -0.53367,-0.10673 -0.53367,-0.72935 0,-0.83608 0.0534,-2.52602 0.0534,-1.68995 0.0534,-2.54382 0,-0.65819 -0.0356,-1.95678 -0.0356,-1.31638 -0.0356,-1.97457 0,-2.43708 -2.11688,-2.43708 -0.69377,0 -1.61879,0.60482 -0.99618,0.67598 -0.99618,1.33417 v 9.60602 q 0,0.58703 -0.55146,0.65819 -0.62261,0.0712 -2.54381,0.0712 -2.08131,0 -2.70392,-0.10673 -0.55146,-0.0889 -0.55146,-0.58704 0,-1.38753 0.0178,-4.18039 0.0178,-2.79286 0.0178,-4.19819 0,-4.42944 -0.69376,-6.95546 -0.0356,-0.1601 -0.0356,-0.26684 0,-0.28462 0.26683,-0.39135 1.1207,-0.12452 2.98854,-0.39136 2.82844,-0.55145 3.18422,-0.55145 0.19567,0 0.30241,1.20964 0.10673,1.19186 0.30241,1.19186 -0.19568,0 1.90341,-1.22744 2.11688,-1.24522 3.7001,-1.24522 2.25919,0 3.77125,1.06733 1.68994,1.22744 1.68994,3.41548 v 5.67466 q 0,1.15628 0.0178,3.46884 0.0178,2.29477 0.0178,3.45105 z m 21.82699,-24.726594 q 0,-0.391357 -0.14231,1.174068 -0.19567,1.974566 -0.30241,5.052056 -0.14231,3.48662 -0.14231,7.93385 0,7.34683 0.40915,10.45989 0.0356,0.33799 0.0356,0.42693 0,0.19568 -0.26683,0.23126 -0.6404,0.0889 -4.71406,0.0889 -0.96061,0 -1.10292,-0.37357 -0.0356,-0.67598 -0.0711,-1.35195 -0.0178,-0.14232 -0.14231,-0.28463 -0.10674,0.0534 -0.26684,0.21347 -1.9212,1.88563 -4.803,1.88563 -3.75347,0 -6.01266,-2.63276 -2.15246,-2.50824 -2.15246,-6.33286 0,-3.87798 2.11688,-6.38622 2.24141,-2.66834 6.04824,-2.66834 2.68612,0 4.18039,1.70774 0.24905,0.28462 0.35578,0.28462 0.1601,0 0.1601,-0.46251 0,-1.36975 -0.0712,-4.09145 -0.0711,-2.72171 -0.0711,-4.073663 0,-0.515879 0.28462,-0.587034 1.13849,-0.05337 3.13085,-0.213467 3.55778,-0.444723 3.14864,-0.444723 0.39135,0 0.39135,0.444723 z m -6.70642,16.348014 q 0,-1.40532 -0.97839,-2.45487 -0.97839,-1.06734 -2.36592,-1.06734 -1.45869,0 -2.33035,1.06734 -0.85387,1.04955 -0.85387,2.52603 0,1.4409 0.87166,2.43708 0.88944,1.06733 2.31256,1.06733 1.42311,0 2.38371,-1.06733 0.9606,-1.06734 0.9606,-2.50824 z m 26.45212,0.14231 q 0,4.05587 -2.49044,6.5819 -2.47266,2.52603 -6.51075,2.52603 -3.91356,0 -6.43959,-2.49045 -2.52602,-2.49045 -2.52602,-6.40401 0,-4.12703 2.41929,-6.68863 2.41929,-2.5794 6.54632,-2.5794 4.0203,0 6.51075,2.52603 2.49044,2.50824 2.49044,6.52853 z m -5.83476,0 q 0,-1.40532 -0.87166,-2.47266 -0.87165,-1.08512 -2.25919,-1.08512 -1.40532,0 -2.31256,1.10291 -0.85387,1.03176 -0.85387,2.45487 0,1.4409 0.85387,2.47266 0.90724,1.10291 2.31256,1.10291 1.38754,0 2.29477,-1.10291 0.83608,-1.03176 0.83608,-2.47266 z"
             id="text1"
             aria-label="Sepptendo" />
        </g>
      </g>
    </g>
  </g>
</svg>
