<?xml version="1.0" encoding="UTF-8"?>
<svg id="Layer_2" data-name="Layer 2" xmlns="http://www.w3.org/2000/svg" viewBox="0 0 1009.77 981.68">
  <defs>
    <style>
      .cls-1 {
        fill: #39b54a;
      }
    </style>
  </defs>
  <g id="Layer_1-2" data-name="Layer 1">
    <g>
      <path class="cls-1" d="M464.56,291.17c13.55,11.08,19.01,77.6,46.45,26.08,16.55-31.07,7.82-35.41,51.15-27.49,84.35,15.42,180.66,90.38,220.81,165.33,3.41,6.37,13.14,22.06,11.35,28.25-.7,2.42-30.72,31.37-35.42,35.95-106.38,103.53-253.68,202.06-384.6,272.24-26.29,14.1-64.27,35.76-90.97,46.08-2.63,1.02-18.04,6.26-20.04,5.81-2.31-.52-28.18-29.42-31.5-33.81-109.29-144.41-73.8-363.44,72.52-467.87,33.59-23.97,94.78-53.42,136.03-55.75,11.18-.63,15.68-1.82,24.24,5.18Z"/>
      <path class="cls-1" d="M959.98,246.15c89.91,28.11,37.45,132.74,2.2,184.5-38.24,56.16-89,104.92-138.05,151.67,17.94,253.58-247.49,445.05-479.36,324.5-76.61,30.85-222.71,98.14-302.57,66.7-107.62-42.36,19.64-201.67,61.26-250.03,6.73-7.82,37.71-44.71,45.46-44.83,4.33-.06,15.9,35.76,15.57,39.78s-44.02,56.38-50.25,65.59c-124.4,183.95,121.14,101.35,202.43,65.05,174.23-77.79,449.4-263.91,554.37-423.79,113.76-173.26-66.37-128.58-161.16-80.74-6.88-2.98-39.52-31.95-36.4-37.26,2.73-4.66,69.23-31.48,79.09-35.01,58.59-20.93,146.74-45.1,207.41-26.13Z"/>
      <path class="cls-1" d="M498.09.83c3.11,1.62,5.83,10.89,6.97,14.29,14.48,43.3,7.3,100,60.07,119.86,18.64,7.01,56.63,10.49,71.1,18.5,5.6,3.1,8,8.89,3.41,13.93-6.35,6.97-61.03,15.57-74.51,20.84-42.84,16.76-43.74,60.76-56.39,97.96-5.05,14.84-11.18,44.91-22.76,16.14-19.85-49.33-9.5-97.33-71.12-116.4-11.28-3.49-67.2-13.55-71.36-19.62-3.08-4.5-.23-10.85,4.4-13.13,28.89-14.22,74.79-7.42,101.81-35.78,28.04-29.44,21.54-79.1,36.27-111.49,1.88-4.13,7.35-7.57,12.11-5.1Z"/>
    </g>
  </g>
</svg>